<svg width="96" height="48" viewBox="0 0 96 48" fill="none" xmlns="http://www.w3.org/2000/svg">
<path fill-rule="evenodd" clip-rule="evenodd" d="M48 44.3077C21.5246 44.3077 3.74026 33.8074 3.74026 24C3.74026 14.1926 21.5246 3.69231 48 3.69231C74.4754 3.69231 92.2597 14.1926 92.2597 24C92.2597 33.8074 74.4754 44.3077 48 44.3077ZM48 0C21.4909 0 0 10.7452 0 24C0 37.2548 21.4909 48 48 48C74.5091 48 96 37.2548 96 24C96 10.7452 74.5091 0 48 0Z" fill="#202020"/>
<path fill-rule="evenodd" clip-rule="evenodd" d="M41.0186 19.6923H47.0117V32H51.007V19.6923H57V16L41 16.0252L41.0186 19.6923Z" fill="#202020"/>
<path fill-rule="evenodd" clip-rule="evenodd" d="M71.0058 16.0252V25.5692L63.0175 16L59 16.0252V32.0049L63.0175 32V22.1538L71.0058 32L75 32.0049V16.0252H71.0058Z" fill="#202020"/>
<path fill-rule="evenodd" clip-rule="evenodd" d="M30 22.7692L24.8571 16H21L21.0135 32.0049L24.8571 32V22.1538L28.7143 27.0769H31.2857L35.1429 22.1538V32L38.9865 32.0049L39 16H35.1429L30 22.7692Z" fill="#202020"/>
</svg>
